<svg xmlns="http://www.w3.org/2000/svg" xmlns:svg="http://www.w3.org/2000/svg" id="svg37" width="48" height="48" enable-background="new" version="1.1"><metadata id="metadata41"/><defs id="defs25"><linearGradient id="color-1" x1="9.172" x2="57.14" y1="10.655" y2="56.176" gradientUnits="userSpaceOnUse"><stop id="stop2" offset="0" stop-color="#000" stop-opacity=".3"/><stop id="stop4" offset="1" stop-color="#000" stop-opacity="0"/></linearGradient><filter id="dropshadow-base"><feColorMatrix id="feColorMatrix7" type="matrix" values="0 0 0 0 0 0 0 0 0 0 0 0 0 0 0 0 0 0 .8 0"/><feOffset id="feOffset9" dx="0" dy="1"/><feGaussianBlur id="feGaussianBlur11" result="result1" stdDeviation="1"/><feComposite id="feComposite13" in="SourceGraphic" in2="result1"/></filter><filter id="dropshadow-banner" width="120%" height="130%" x="-10%" y="-10%"><feColorMatrix id="feColorMatrix16" type="matrix" values="0 0 0 0 0 0 0 0 0 0 0 0 0 0 0 0 0 0 .4 0"/><feOffset id="feOffset18" dx="0" dy="1"/><feGaussianBlur id="feGaussianBlur20" result="result1" stdDeviation=".5"/><feComposite id="feComposite22" in="SourceGraphic" in2="result1"/></filter><filter style="color-interpolation-filters:sRGB" id="filter7496" width="1.072" height="1.072" x="-.036" y="-.036"><feGaussianBlur id="feGaussianBlur7498" stdDeviation=".63"/></filter></defs><g id="g35" fill="none" fill-rule="nonzero" stroke="none" stroke-dashoffset="0" stroke-linecap="butt" stroke-linejoin="miter" stroke-miterlimit="10" stroke-width="none" font-family="none" font-size="none" font-weight="none" text-anchor="none" style="mix-blend-mode:normal"><rect style="opacity:1;mix-blend-mode:normal;fill:#000;fill-opacity:.39215686;fill-rule:nonzero;stroke:none;stroke-width:.93887889;stroke-linecap:round;stroke-linejoin:round;stroke-miterlimit:4;stroke-dasharray:none;stroke-dashoffset:0;stroke-opacity:1;filter:url(#filter7496)" id="rect7479-3" width="42" height="42" x="3" y="4" ry="2.218"/><rect style="opacity:1;fill:#880e4f;fill-opacity:1;fill-rule:nonzero;stroke:none;stroke-width:.93887889;stroke-linecap:round;stroke-linejoin:round;stroke-miterlimit:4;stroke-dasharray:none;stroke-dashoffset:0;stroke-opacity:1" id="rect7479" width="42" height="42" x="3" y="3" ry="2.218"/><path id="path28" fill="url(#color-1)" stroke-width="1" d="M15.58098,30.05822l14.94179,14.94178h4.71309l-7.75103,-7.75103c0,0 0,-0.00001 0,-0.00001l7.75104,7.75104h7.76413c1.10457,0 2,-0.89543 2,-2v-21.44839l-8.53441,-8.53441c-1.46703,-1.46702 -3.50586,-2.36226 -5.79305,-2.36226l-0.00001,-0.00001c-2.57107,0 -5.03907,1.19272 -6.65564,3.07191l-0.46909,-0.46909c-1.60635,-1.60634 -3.87028,-2.60281 -6.22032,-2.60281l-0.00001,-0.00001c-4.57439,0 -8.15532,3.58093 -8.15532,8.15532c0,3.8661 2.40498,7.24411 6.40883,11.24796l0.02444,0.02444c-0.00815,-0.00814 -0.0163,-0.01628 -0.02444,-0.02442zM27.9881,34.24252c0.85653,-2.33837 2.73807,-4.14128 5.12908,-4.89323c-1.4777,1.52529 -3.20306,3.13471 -5.12908,4.89323z"/><path id="path30" fill="#f06292" stroke-width="0" d="M24,37.60455l-2.15004,-1.94986c-7.63634,-6.93202 -12.67781,-11.50641 -12.67781,-17.10392c0,-4.57439 3.58093,-8.15532 8.15532,-8.15532c2.58005,0 5.0563,1.20106 6.67253,3.09161c1.61624,-1.89055 4.09249,-3.09161 6.67253,-3.09161c4.57439,0 8.15532,3.58093 8.15532,8.15532c0,5.59751 -5.04147,10.1719 -12.67781,17.10392z"/><path id="banner 1" fill="#212121" stroke-width="1" d="M15.02,36v-12h30v12z" filter="url(#dropshadow-banner)"/><text id="text33" x="29" y="33" fill="#fff" stroke-width="1" font-family="sans-serif" font-size="8" font-weight="bold" text-anchor="middle">BETA</text></g></svg>