<svg xmlns="http://www.w3.org/2000/svg" xmlns:svg="http://www.w3.org/2000/svg" id="svg34" width="48" height="48" enable-background="new" version="1.1"><metadata id="metadata38"/><defs id="defs25"><linearGradient id="color-1" x1="15.383" x2="50.295" y1="11.69" y2="53.988" gradientUnits="userSpaceOnUse"><stop id="stop2" offset="0" stop-color="#000" stop-opacity=".29"/><stop id="stop4" offset="1" stop-color="#000" stop-opacity="0"/></linearGradient><filter id="dropshadow-base"><feColorMatrix id="feColorMatrix7" type="matrix" values="0 0 0 0 0 0 0 0 0 0 0 0 0 0 0 0 0 0 .8 0"/><feOffset id="feOffset9" dx="0" dy="1"/><feGaussianBlur id="feGaussianBlur11" result="result1" stdDeviation="1"/><feComposite id="feComposite13" in="SourceGraphic" in2="result1"/></filter><filter id="dropshadow-banner" width="120%" height="130%" x="-10%" y="-10%"><feColorMatrix id="feColorMatrix16" type="matrix" values="0 0 0 0 0 0 0 0 0 0 0 0 0 0 0 0 0 0 .4 0"/><feOffset id="feOffset18" dx="0" dy="1"/><feGaussianBlur id="feGaussianBlur20" result="result1" stdDeviation=".5"/><feComposite id="feComposite22" in="SourceGraphic" in2="result1"/></filter><filter style="color-interpolation-filters:sRGB" id="filter7493" width="1.072" height="1.072" x="-.036" y="-.036"><feGaussianBlur id="feGaussianBlur7495" stdDeviation=".63"/></filter></defs><g id="g32" fill="none" fill-rule="nonzero" stroke="none" stroke-dashoffset="0" stroke-linecap="butt" stroke-linejoin="miter" stroke-miterlimit="10" stroke-width="none" font-family="none" font-size="none" font-weight="none" text-anchor="none" style="mix-blend-mode:normal"><rect style="opacity:1;mix-blend-mode:normal;fill:#000;fill-opacity:.39215687;fill-rule:nonzero;stroke:none;stroke-width:.80068243;stroke-linecap:round;stroke-linejoin:round;stroke-miterlimit:4;stroke-dasharray:none;stroke-dashoffset:0;stroke-opacity:1;filter:url(#filter7493)" id="rect7476-3" width="42" height="42" x="3" y="4" ry="1.728"/><rect style="opacity:1;fill:#f5b912;fill-opacity:1;fill-rule:nonzero;stroke:none;stroke-width:.80068243;stroke-linecap:round;stroke-linejoin:round;stroke-miterlimit:4;stroke-dasharray:none;stroke-dashoffset:0;stroke-opacity:1" id="rect7476" width="42" height="42" x="3" y="3" ry="1.728"/><path id="path28" fill="url(#color-1)" stroke-width="1" d="M20.66851,35.94872c0.00099,0.00099 0.00198,0.00198 0.00298,0.00297l-0.00297,-0.00297c-0.22313,-0.22313 -0.36162,-0.53089 -0.36162,-0.86942l0,-1.23103l1.95426,0l-2.82368,-2.82368c-0.22313,-0.22313 -0.36162,-0.53089 -0.36162,-0.86942l3.6931,3.6931l0.00001,0l-3.6931,-3.6931l0,-2.5932l-1.16897,-1.16897c-1.55736,-1.55737 -2.52414,-3.70596 -2.52414,-6.0861c0,-4.75795 3.85929,-8.61724 8.61724,-8.61724c2.37897,0 4.53328,0.96482 6.09285,2.52439l14.90715,14.90715v13.8788c0,1.10457 -0.89543,2 -2,2h-13.28021z"/><path id="path30" fill="#fff" stroke-width="0" d="M20.3069,35.0793c0,0.67707 0.55397,1.23103 1.23103,1.23103h4.92414c0.67707,0 1.23103,-0.55397 1.23103,-1.23103v-1.23103h-7.3862zM24,11.68966c-4.75795,0 -8.61724,3.85929 -8.61724,8.61724c0,2.92986 1.46493,5.50888 3.6931,7.06613v2.78214c0,0.67707 0.55397,1.23103 1.23103,1.23103h7.3862c0.67707,0 1.23103,-0.55397 1.23103,-1.23103v-2.78214c2.22817,-1.55726 3.6931,-4.13627 3.6931,-7.06613c0,-4.75795 -3.85929,-8.61724 -8.61724,-8.61724zM27.5146,25.35414l-1.05253,0.73247v2.83753h-4.92414v-2.83138l-1.05253,-0.73247c-1.65574,-1.15717 -2.64057,-3.04065 -2.64057,-5.04724c0,-3.3915 2.76367,-6.15517 6.15517,-6.15517c3.3915,0 6.15517,2.76367 6.15517,6.15517c0,2.00043 -0.98483,3.88391 -2.64057,5.04108z"/></g></svg>