<svg xmlns="http://www.w3.org/2000/svg" xmlns:svg="http://www.w3.org/2000/svg" id="svg6" width="24" height="24" fill="#000" version="1.1" viewBox="0 0 24 24"><metadata id="metadata12"/><rect style="opacity:1;fill:#fff;fill-opacity:1;fill-rule:nonzero;stroke:none;stroke-width:1;stroke-linecap:round;stroke-linejoin:round;stroke-miterlimit:4;stroke-dasharray:none;stroke-dashoffset:0;stroke-opacity:1" id="rect3602" width="16.068" height="5.492" x="3.763" y="12.102"/><path id="path2" fill="none" d="M0 0h24v24H0z"/><path id="path4" d="M 18.484262,9.0883775 21.789346,5.7832929 20.498789,4.4769975 16.878935,8.1125905 C 15.399516,7.3728815 13.762712,6.9322033 12,6.9322033 c -1.762712,0 -3.3995161,0.4406782 -4.8631962,1.1803872 L 3.5012107,4.4769975 2.2106538,5.7832929 5.5157385,9.0883775 C 2.7772398,11.087168 0.98305085,14.297821 0.98305085,17.949152 v 1.57385 H 23.016949 v -1.57385 c 0,-3.651331 -1.794189,-6.861984 -4.532687,-8.8607745 z M 7.2784508,16.375302 c -0.865618,0 -1.5738504,-0.708231 -1.5738504,-1.573849 0,-0.865617 0.7082324,-1.57385 1.5738504,-1.57385 0.865617,0 1.573849,0.708233 1.573849,1.57385 0,0.865618 -0.708232,1.573849 -1.573849,1.573849 z m 9.4430992,0 c -0.865618,0 -1.57385,-0.708231 -1.57385,-1.573849 0,-0.865617 0.708232,-1.57385 1.57385,-1.57385 0.865617,0 1.57385,0.708233 1.57385,1.57385 0,0.865618 -0.708233,1.573849 -1.57385,1.573849 z" style="fill:#2196f3;fill-opacity:1;stroke-width:1.57384992"/></svg>